<?xml version="1.0" encoding="UTF-8" ?>
<!-- 
 * Linuxihaa SVG Logo
 * Copyright (C) 2013  Linuxihaa, linuxihaa.ir
 * Designer: Misam Saki, misam.ir
-->
<!DOCTYPE svg PUBLIC "-//W3C//DTD SVG 1.1//EN" "http://www.w3.org/Graphics/SVG/1.1/DTD/svg11.dtd">
<svg width="512px" height="512px" viewBox="0 0 640 680" version="1.1" xmlns="http://www.w3.org/2000/svg">
<path fill="none" d=" M 0.00 0.00 L 600.00 0.00 L 600.00 600.00 L 0.00 600.00 L 0.00 0.00 Z" />
<path fill="#202020" d=" M 62.42 17.42 C 109.43 47.63 154.31 81.12 196.77 117.43 C 225.76 142.24 253.70 168.27 280.47 195.46 C 283.42 198.50 286.61 201.32 289.24 204.65 C 293.24 209.83 298.18 214.16 302.76 218.80 C 300.17 218.94 297.58 219.15 295.03 219.62 C 288.10 220.66 281.39 222.73 274.58 224.36 C 268.05 226.35 261.75 229.03 255.37 231.46 C 253.73 228.89 251.82 226.51 249.55 224.48 C 220.18 196.58 190.56 168.69 157.64 144.96 C 156.75 145.56 155.85 146.16 154.97 146.78 C 155.54 146.29 156.68 145.31 157.25 144.82 C 147.16 138.12 137.22 131.22 127.38 124.18 C 125.64 122.99 123.81 121.92 122.49 120.24" />
<path fill="#CE1919" d=" M 196.77 117.43 C 249.51 87.86 313.14 78.73 372.13 91.75 C 424.97 103.02 473.64 132.40 508.69 173.45 C 526.83 194.55 541.36 218.71 551.63 244.57 C 539.40 245.20 527.16 244.84 514.94 245.54 C 502.59 246.35 490.17 246.77 477.93 248.75 C 466.89 250.54 455.91 252.70 444.98 255.06 C 441.25 256.27 437.92 253.80 434.64 252.42 C 409.09 240.16 382.03 230.51 353.87 226.59 C 336.39 223.90 318.57 223.90 301.02 225.62 C 285.81 228.45 270.63 232.56 257.02 240.09 C 251.53 242.47 246.61 245.95 241.09 248.24 C 225.70 255.16 213.16 266.65 200.51 277.54 C 157.49 319.84 115.32 363.43 79.97 412.48 C 67.51 376.49 65.32 337.46 70.62 299.89 C 79.07 240.92 109.66 185.44 154.97 146.78 C 155.85 146.16 156.75 145.56 157.64 144.96 C 190.56 168.69 220.18 196.58 249.55 224.48 C 251.82 226.51 253.73 228.89 255.37 231.46 C 261.75 229.03 268.05 226.35 274.58 224.36 C 281.39 222.73 288.10 220.66 295.03 219.62 C 297.58 219.15 300.17 218.94 302.76 218.80 C 298.18 214.16 293.24 209.83 289.24 204.65 C 286.61 201.32 283.42 198.50 280.47 195.46 C 253.70 168.27 225.76 142.24 196.77 117.43 Z" />
<path fill="#FFF" d=" M 301.02 225.62 C 318.57 223.90 336.39 223.90 353.87 226.59 C 382.03 230.51 409.09 240.16 434.64 252.42 C 437.92 253.80 441.25 256.27 444.98 255.06 C 455.91 252.70 466.89 250.54 477.93 248.75 C 490.17 246.77 502.59 246.35 514.94 245.54 C 527.16 244.84 539.40 245.20 551.63 244.57 C 562.20 244.57 572.84 243.76 583.37 244.95 C 574.49 249.33 564.88 251.96 555.69 255.60 C 538.57 261.61 521.59 268.11 505.32 276.15 C 490.56 283.42 476.09 291.72 463.83 302.80 C 454.27 312.99 447.03 325.04 440.01 337.04 C 434.59 346.47 429.42 356.07 425.04 366.04 C 423.29 370.16 421.72 374.52 421.79 379.06 C 422.36 382.36 424.38 385.15 425.78 388.14 C 434.10 404.85 441.32 422.15 446.59 440.07 C 456.09 471.15 464.43 502.59 471.48 534.32 C 465.81 538.76 459.94 542.94 453.88 546.84 C 454.33 546.47 455.24 545.73 455.69 545.36 C 453.55 526.29 449.82 507.35 443.76 489.12 C 433.76 459.01 419.51 430.43 402.82 403.50 C 386.52 413.59 368.01 420.11 348.94 422.19 C 319.18 425.63 288.29 418.26 263.36 401.63 C 240.54 386.60 222.89 363.84 214.26 337.89 C 209.93 325.10 207.93 311.58 207.93 298.10 C 166.15 340.49 128.05 387.06 99.19 439.29 C 97.65 442.20 95.99 445.05 94.17 447.80 C 88.04 436.74 83.77 424.74 79.74 412.79 L 79.97 412.48 C 115.32 363.43 157.49 319.84 200.51 277.54 C 213.16 266.65 225.70 255.16 241.09 248.24 C 246.61 245.95 251.53 242.47 257.02 240.09 C 270.63 232.56 285.81 228.45 301.02 225.62 Z" />
<path fill="#CE1919" d=" M 505.32 276.15 C 521.59 268.11 538.57 261.61 555.69 255.60 C 566.62 287.47 570.64 321.54 568.53 355.10 C 565.55 395.71 552.53 435.57 530.67 469.95 C 520.75 485.80 508.91 500.44 495.75 513.72 C 490.52 518.82 485.30 524.01 479.29 528.21 C 476.59 530.12 474.04 532.23 471.48 534.32 C 464.43 502.59 456.09 471.15 446.59 440.07 C 441.32 422.15 434.10 404.85 425.78 388.14 C 424.38 385.15 422.36 382.36 421.79 379.06 C 421.72 374.52 423.29 370.16 425.04 366.04 C 429.42 356.07 434.59 346.47 440.01 337.04 C 447.03 325.04 454.27 312.99 463.83 302.80 C 476.09 291.72 490.56 283.42 505.32 276.15 Z" />
<path fill="#CE1919" d=" M 99.19 439.29 C 128.05 387.06 166.15 340.49 207.93 298.10 C 207.93 311.58 209.93 325.10 214.26 337.89 C 222.89 363.84 240.54 386.60 263.36 401.63 C 288.29 418.26 319.18 425.63 348.94 422.19 C 368.01 420.11 386.52 413.59 402.82 403.50 C 419.51 430.43 433.76 459.01 443.76 489.12 C 449.82 507.35 453.55 526.29 455.69 545.36 C 455.24 545.73 454.33 546.47 453.88 546.84 C 447.63 551.99 440.21 555.42 433.08 559.15 C 401.46 576.15 365.83 585.14 330.06 586.96 C 319.69 586.84 309.28 587.49 298.95 586.40 C 261.15 583.55 224.02 571.88 191.43 552.52 C 149.69 528.12 115.44 491.21 94.17 447.80 C 95.99 445.05 97.65 442.20 99.19 439.29 Z" />
</svg>